<?xml version="1.0" encoding="windows-1252"?>
<!-- Generator: Adobe Illustrator 16.0.0, SVG Export Plug-In . SVG Version: 6.00 Build 0)  -->
<!DOCTYPE svg PUBLIC "-//W3C//DTD SVG 1.1//EN" "http://www.w3.org/Graphics/SVG/1.1/DTD/svg11.dtd">
<svg version="1.1" id="Capa_1" xmlns="http://www.w3.org/2000/svg" xmlns:xlink="http://www.w3.org/1999/xlink" x="0px" y="0px" width="604.536px" height="604.536px" viewBox="0 0 604.536 604.536" style="enable-background:new 0 0 604.536 604.536;" xml:space="preserve">
<g>
	<g>
		<path d="M582.677,181.267c29.146-29.185,29.146-76.481,0-105.646l-52.823-52.842c-29.185-29.185-76.5-29.185-105.68,0    l-31.948,32.986l158.508,158.489L582.677,181.267z"/>
		<path d="M152.011,537.145c-22.84,0-56.185,2.954-72.345-13.201c-16.156-16.199-13.163-49.505-13.163-72.346    c0-4.174-27.401-41.783-28.276-42.825L0,603.647l194.334-38.188C193.416,564.627,156.476,537.145,152.011,537.145z"/>
		<path d="M358.818,85.202l-0.573,0.574l-0.315-0.315L71.274,372.421l166.88,166.358l287.544-285.57l-0.822-0.822l0.822-0.827    L358.818,85.202z M120.091,375.73l242.146-241.76l30.911,30.811L150.939,406.483L120.091,375.73z M235.08,490.355l-31.231-31.131    l242.232-241.673l31.241,31.141L235.08,490.355z"/>
	</g>
</g>
<g>
</g>
<g>
</g>
<g>
</g>
<g>
</g>
<g>
</g>
<g>
</g>
<g>
</g>
<g>
</g>
<g>
</g>
<g>
</g>
<g>
</g>
<g>
</g>
<g>
</g>
<g>
</g>
<g>
</g>
</svg>